<?xml version="1.0" encoding="iso-8859-1"?>
<!-- Generator: Adobe Illustrator 19.0.0, SVG Export Plug-In . SVG Version: 6.00 Build 0)  -->
<svg version="1.1" id="Capa_1" xmlns="http://www.w3.org/2000/svg" xmlns:xlink="http://www.w3.org/1999/xlink" x="0px" y="0px"
	 viewBox="0 0 512 512" style="enable-background:new 0 0 512 512;" xml:space="preserve">
<g>
	<g>
		<path d="M347,242H15c-8.291,0-15,6.709-15,15v210c0,24.814,20.186,45,45,45h272c24.814,0,45-20.186,45-45V257
			C362,248.709,355.291,242,347,242z M270,332c0,49.629-40.371,90-90,90c-49.629,0-90-40.371-90-90v-15c0-8.291,6.709-15,15-15
			s15,6.709,15,15v15c0,33.091,26.909,60,60,60s60-26.909,60-60v-15c0-8.291,6.709-15,15-15s15,6.709,15,15V332z"/>
	</g>
</g>
<g>
	<g>
		<path d="M497,122h-77V90c0-49.629-40.371-90-90-90c-49.629,0-90,40.371-90,90v32h-77c-8.291,0-15,6.709-15,15v75h199
			c24.814,0,45,20.186,45,45v210c0,16.948-5.865,32.426-15.383,45H467c24.814,0,45-20.186,45-45V137
			C512,128.709,505.291,122,497,122z M390,122H270V90c0-33.091,26.909-60,60-60s60,26.909,60,60V122z"/>
	</g>
</g>
</svg>
